<?xml version="1.0" encoding="UTF-8" standalone="no"?>
<!DOCTYPE svg PUBLIC "-//W3C//DTD SVG 1.1//EN" "http://www.w3.org/Graphics/SVG/1.1/DTD/svg11.dtd">
<svg width="100%" height="100%" viewBox="0 0 191 64" version="1.1" xmlns="http://www.w3.org/2000/svg" xmlns:xlink="http://www.w3.org/1999/xlink" xml:space="preserve" xmlns:serif="http://www.serif.com/" style="fill-rule:evenodd;clip-rule:evenodd;stroke-linejoin:round;stroke-miterlimit:2;">
    <g transform="matrix(1,0,0,1,-58.639,-56.9827)">
        <g transform="matrix(1,0,0,1,198,30)">
            <g transform="matrix(80,0,0,80,-139.201,74.6627)">
                <path d="M0.439,-0.333C0.454,-0.36 0.465,-0.39 0.472,-0.421C0.48,-0.452 0.483,-0.48 0.482,-0.506C0.48,-0.532 0.472,-0.554 0.459,-0.571C0.446,-0.588 0.425,-0.596 0.398,-0.596C0.385,-0.596 0.369,-0.593 0.35,-0.587C0.332,-0.582 0.311,-0.573 0.286,-0.56C0.262,-0.547 0.237,-0.532 0.211,-0.513C0.184,-0.494 0.158,-0.473 0.133,-0.45C0.108,-0.427 0.085,-0.402 0.065,-0.376C0.044,-0.349 0.028,-0.322 0.016,-0.294C0.004,-0.266 -0.002,-0.238 -0.002,-0.211C-0.002,-0.187 0.004,-0.166 0.017,-0.148C0.03,-0.129 0.045,-0.114 0.064,-0.101C0.082,-0.087 0.102,-0.077 0.123,-0.07C0.143,-0.062 0.163,-0.056 0.18,-0.053C0.195,-0.05 0.211,-0.047 0.226,-0.045C0.241,-0.043 0.257,-0.04 0.272,-0.036C0.276,-0.035 0.281,-0.034 0.285,-0.033C0.291,-0.032 0.295,-0.03 0.298,-0.027C0.301,-0.024 0.302,-0.021 0.303,-0.017C0.303,-0.012 0.3,-0.006 0.295,0.001C0.289,0.011 0.279,0.022 0.266,0.033C0.253,0.044 0.238,0.055 0.223,0.065C0.208,0.075 0.192,0.083 0.177,0.09C0.162,0.097 0.149,0.1 0.139,0.1C0.132,0.1 0.126,0.099 0.122,0.096C0.118,0.093 0.114,0.089 0.11,0.083C0.109,0.08 0.106,0.078 0.103,0.078C0.098,0.078 0.096,0.082 0.099,0.089C0.102,0.105 0.109,0.117 0.12,0.126C0.131,0.135 0.144,0.14 0.161,0.14C0.171,0.14 0.182,0.138 0.193,0.134C0.204,0.131 0.215,0.126 0.226,0.121C0.236,0.116 0.246,0.11 0.256,0.103C0.265,0.096 0.274,0.09 0.281,0.084C0.288,0.077 0.297,0.068 0.306,0.057C0.315,0.046 0.323,0.034 0.329,0.021C0.334,0.008 0.337,-0.005 0.337,-0.018C0.337,-0.031 0.332,-0.043 0.321,-0.054C0.312,-0.065 0.299,-0.073 0.282,-0.08C0.265,-0.087 0.248,-0.092 0.229,-0.097C0.21,-0.102 0.19,-0.106 0.17,-0.111C0.15,-0.115 0.132,-0.12 0.115,-0.127C0.098,-0.133 0.083,-0.141 0.071,-0.15C0.059,-0.159 0.051,-0.17 0.048,-0.185C0.044,-0.202 0.047,-0.222 0.056,-0.244C0.065,-0.265 0.078,-0.287 0.095,-0.31C0.112,-0.332 0.131,-0.354 0.152,-0.375C0.173,-0.396 0.194,-0.416 0.215,-0.434C0.236,-0.452 0.255,-0.467 0.272,-0.48C0.289,-0.493 0.302,-0.501 0.31,-0.505C0.315,-0.508 0.322,-0.511 0.33,-0.515C0.337,-0.519 0.345,-0.523 0.355,-0.527C0.364,-0.531 0.373,-0.534 0.382,-0.537C0.391,-0.54 0.4,-0.541 0.408,-0.541C0.417,-0.541 0.425,-0.539 0.431,-0.535C0.438,-0.53 0.442,-0.522 0.443,-0.509C0.444,-0.497 0.442,-0.483 0.439,-0.466C0.435,-0.449 0.429,-0.43 0.421,-0.41C0.413,-0.391 0.404,-0.371 0.394,-0.351C0.389,-0.343 0.382,-0.331 0.373,-0.314C0.363,-0.297 0.352,-0.281 0.341,-0.264C0.329,-0.247 0.317,-0.233 0.305,-0.221C0.292,-0.208 0.281,-0.202 0.272,-0.202L0.267,-0.202C0.264,-0.202 0.262,-0.201 0.26,-0.199C0.257,-0.196 0.256,-0.194 0.258,-0.192C0.259,-0.19 0.261,-0.188 0.263,-0.187C0.269,-0.184 0.276,-0.183 0.284,-0.183C0.3,-0.183 0.316,-0.189 0.332,-0.2C0.347,-0.211 0.362,-0.224 0.376,-0.239C0.389,-0.255 0.402,-0.272 0.412,-0.289C0.424,-0.306 0.432,-0.32 0.439,-0.333Z" style="fill-rule:nonzero;"/>
            </g>
            <g transform="matrix(80,0,0,80,-108.241,74.6627)">
                <path d="M0.298,-0.059C0.308,-0.089 0.319,-0.118 0.332,-0.145C0.345,-0.172 0.359,-0.2 0.374,-0.228C0.377,-0.233 0.377,-0.238 0.375,-0.243C0.373,-0.247 0.37,-0.251 0.365,-0.254C0.36,-0.257 0.355,-0.259 0.35,-0.261C0.345,-0.262 0.34,-0.263 0.336,-0.263C0.334,-0.263 0.333,-0.263 0.332,-0.262C0.324,-0.26 0.314,-0.253 0.302,-0.241C0.29,-0.228 0.278,-0.214 0.266,-0.199C0.254,-0.184 0.243,-0.168 0.233,-0.153C0.222,-0.138 0.214,-0.126 0.209,-0.119L0.204,-0.112L0.205,-0.114L0.206,-0.119C0.218,-0.146 0.231,-0.173 0.245,-0.199C0.258,-0.224 0.271,-0.25 0.284,-0.277L0.285,-0.279C0.29,-0.293 0.289,-0.304 0.281,-0.312C0.278,-0.315 0.273,-0.319 0.267,-0.322C0.26,-0.325 0.254,-0.326 0.249,-0.326C0.246,-0.326 0.245,-0.326 0.244,-0.325C0.242,-0.324 0.236,-0.318 0.226,-0.306C0.216,-0.294 0.204,-0.279 0.191,-0.261C0.177,-0.243 0.162,-0.223 0.146,-0.202C0.13,-0.181 0.115,-0.16 0.102,-0.141C0.088,-0.122 0.076,-0.105 0.065,-0.091C0.054,-0.076 0.048,-0.067 0.045,-0.062C0.058,-0.087 0.072,-0.113 0.086,-0.139C0.099,-0.164 0.113,-0.19 0.127,-0.216C0.13,-0.221 0.132,-0.225 0.133,-0.228C0.134,-0.231 0.132,-0.235 0.129,-0.24L0.127,-0.241C0.118,-0.25 0.107,-0.255 0.092,-0.255C0.085,-0.255 0.079,-0.254 0.075,-0.252C0.071,-0.25 0.067,-0.246 0.064,-0.239C0.055,-0.22 0.048,-0.204 0.042,-0.192C0.035,-0.179 0.029,-0.167 0.025,-0.156C0.02,-0.144 0.015,-0.132 0.01,-0.118C0.005,-0.106 -0.002,-0.089 -0.009,-0.069C-0.012,-0.061 -0.013,-0.053 -0.014,-0.045C-0.015,-0.036 -0.012,-0.028 -0.007,-0.021C-0.004,-0.017 0.002,-0.013 0.011,-0.008C0.019,-0.003 0.026,-0.001 0.031,-0.002C0.034,-0.002 0.038,-0.005 0.041,-0.01C0.043,-0.015 0.046,-0.019 0.048,-0.022C0.073,-0.06 0.1,-0.098 0.127,-0.135C0.154,-0.172 0.181,-0.208 0.209,-0.243C0.198,-0.222 0.188,-0.202 0.179,-0.183C0.17,-0.163 0.162,-0.143 0.155,-0.123C0.153,-0.116 0.152,-0.108 0.151,-0.099C0.15,-0.09 0.151,-0.082 0.154,-0.074C0.155,-0.069 0.159,-0.064 0.164,-0.059C0.169,-0.054 0.175,-0.051 0.18,-0.05C0.183,-0.051 0.186,-0.052 0.187,-0.053C0.188,-0.054 0.189,-0.056 0.19,-0.057C0.207,-0.082 0.225,-0.106 0.243,-0.129C0.26,-0.152 0.278,-0.176 0.296,-0.199L0.299,-0.204C0.3,-0.204 0.3,-0.202 0.297,-0.198C0.288,-0.177 0.279,-0.156 0.272,-0.135C0.264,-0.114 0.257,-0.092 0.252,-0.069C0.251,-0.062 0.251,-0.053 0.252,-0.043C0.253,-0.033 0.257,-0.025 0.265,-0.02C0.268,-0.019 0.271,-0.017 0.274,-0.016C0.276,-0.015 0.279,-0.014 0.282,-0.014C0.297,-0.014 0.313,-0.021 0.331,-0.035C0.348,-0.048 0.365,-0.065 0.382,-0.084C0.399,-0.103 0.414,-0.123 0.429,-0.143C0.443,-0.164 0.454,-0.18 0.463,-0.193C0.461,-0.2 0.458,-0.204 0.454,-0.204C0.453,-0.204 0.452,-0.203 0.451,-0.202C0.45,-0.201 0.445,-0.195 0.438,-0.184C0.43,-0.173 0.421,-0.161 0.41,-0.147C0.407,-0.143 0.401,-0.135 0.391,-0.124C0.381,-0.113 0.37,-0.101 0.359,-0.089C0.347,-0.076 0.335,-0.065 0.324,-0.056C0.313,-0.046 0.304,-0.041 0.299,-0.041C0.296,-0.041 0.295,-0.046 0.298,-0.056L0.298,-0.059Z" style="fill-rule:nonzero;"/>
            </g>
            <g transform="matrix(80,0,0,80,-77.601,74.6627)">
                <path d="M0.007,-0.056C0.008,-0.04 0.014,-0.027 0.024,-0.016C0.033,-0.005 0.046,0 0.063,0C0.079,0 0.095,-0.006 0.111,-0.018C0.127,-0.029 0.142,-0.044 0.156,-0.062C0.17,-0.079 0.182,-0.099 0.193,-0.121C0.203,-0.143 0.21,-0.164 0.213,-0.185C0.216,-0.205 0.215,-0.224 0.21,-0.241C0.204,-0.258 0.194,-0.27 0.177,-0.278C0.172,-0.281 0.166,-0.282 0.158,-0.282C0.145,-0.282 0.132,-0.278 0.119,-0.269C0.107,-0.26 0.097,-0.251 0.089,-0.24C0.082,-0.24 0.076,-0.238 0.071,-0.235C0.067,-0.232 0.063,-0.227 0.059,-0.22C0.052,-0.21 0.046,-0.198 0.039,-0.185C0.032,-0.171 0.025,-0.157 0.021,-0.141C0.016,-0.127 0.012,-0.112 0.009,-0.097C0.006,-0.082 0.006,-0.069 0.007,-0.056ZM0.073,-0.114C0.076,-0.121 0.08,-0.128 0.084,-0.137C0.087,-0.145 0.091,-0.153 0.096,-0.162C0.1,-0.171 0.104,-0.179 0.109,-0.187C0.113,-0.194 0.117,-0.201 0.121,-0.206C0.123,-0.208 0.125,-0.211 0.128,-0.214C0.131,-0.217 0.131,-0.219 0.13,-0.222C0.129,-0.224 0.128,-0.226 0.126,-0.228C0.123,-0.229 0.121,-0.231 0.118,-0.232C0.123,-0.241 0.13,-0.248 0.137,-0.253C0.143,-0.257 0.15,-0.259 0.156,-0.259C0.159,-0.259 0.162,-0.259 0.164,-0.258C0.166,-0.257 0.168,-0.255 0.171,-0.254C0.181,-0.247 0.186,-0.236 0.187,-0.222C0.188,-0.208 0.185,-0.193 0.18,-0.176C0.174,-0.159 0.166,-0.142 0.156,-0.125C0.145,-0.108 0.135,-0.092 0.124,-0.078C0.113,-0.063 0.102,-0.051 0.091,-0.042C0.08,-0.033 0.071,-0.028 0.064,-0.028C0.057,-0.028 0.053,-0.033 0.052,-0.042C0.051,-0.047 0.052,-0.054 0.054,-0.061C0.055,-0.068 0.057,-0.076 0.06,-0.083C0.063,-0.09 0.065,-0.096 0.068,-0.102C0.07,-0.108 0.072,-0.112 0.073,-0.114Z" style="fill-rule:nonzero;"/>
            </g>
            <g transform="matrix(80,0,0,80,-60.881,74.6627)">
                <path d="M0.185,-0.074C0.18,-0.075 0.175,-0.078 0.171,-0.084C0.166,-0.089 0.161,-0.096 0.157,-0.103C0.152,-0.111 0.148,-0.119 0.145,-0.128C0.141,-0.137 0.137,-0.144 0.134,-0.151C0.152,-0.151 0.17,-0.157 0.187,-0.169C0.203,-0.18 0.219,-0.194 0.232,-0.211C0.245,-0.228 0.255,-0.245 0.262,-0.264C0.269,-0.283 0.271,-0.298 0.27,-0.311C0.269,-0.318 0.265,-0.324 0.258,-0.329C0.251,-0.334 0.244,-0.336 0.239,-0.336C0.235,-0.336 0.231,-0.335 0.226,-0.332C0.221,-0.329 0.217,-0.326 0.213,-0.323C0.208,-0.319 0.204,-0.315 0.201,-0.311C0.197,-0.307 0.194,-0.304 0.191,-0.301C0.174,-0.283 0.159,-0.265 0.146,-0.248C0.133,-0.23 0.12,-0.212 0.109,-0.194C0.097,-0.176 0.086,-0.158 0.075,-0.139C0.064,-0.119 0.052,-0.1 0.04,-0.08C0.048,-0.102 0.058,-0.126 0.069,-0.152C0.08,-0.177 0.093,-0.203 0.106,-0.23C0.118,-0.256 0.132,-0.282 0.146,-0.307C0.16,-0.332 0.173,-0.356 0.187,-0.377C0.2,-0.398 0.212,-0.417 0.223,-0.432C0.234,-0.447 0.242,-0.458 0.249,-0.465C0.252,-0.467 0.252,-0.47 0.251,-0.474C0.25,-0.478 0.247,-0.482 0.244,-0.486C0.24,-0.49 0.235,-0.494 0.229,-0.497C0.223,-0.5 0.216,-0.501 0.209,-0.501C0.199,-0.501 0.192,-0.499 0.188,-0.494C0.183,-0.489 0.179,-0.483 0.174,-0.474C0.159,-0.449 0.141,-0.419 0.123,-0.384C0.103,-0.349 0.085,-0.312 0.067,-0.274C0.049,-0.236 0.033,-0.199 0.019,-0.163C0.004,-0.126 -0.006,-0.095 -0.011,-0.069C-0.013,-0.058 -0.014,-0.047 -0.014,-0.038C-0.014,-0.029 -0.009,-0.02 0.002,-0.012C0.007,-0.009 0.012,-0.007 0.015,-0.007C0.019,-0.007 0.023,-0.011 0.028,-0.019C0.031,-0.027 0.036,-0.036 0.042,-0.047C0.047,-0.058 0.053,-0.069 0.059,-0.08C0.065,-0.091 0.071,-0.101 0.077,-0.112C0.082,-0.122 0.087,-0.131 0.092,-0.138C0.095,-0.131 0.099,-0.123 0.103,-0.113C0.109,-0.103 0.114,-0.093 0.121,-0.084C0.127,-0.074 0.133,-0.065 0.14,-0.058C0.146,-0.05 0.152,-0.044 0.158,-0.041L0.161,-0.041C0.166,-0.038 0.171,-0.037 0.174,-0.037C0.178,-0.037 0.182,-0.038 0.186,-0.039C0.189,-0.04 0.193,-0.042 0.197,-0.043C0.212,-0.05 0.226,-0.06 0.239,-0.073C0.252,-0.085 0.264,-0.098 0.276,-0.112C0.287,-0.126 0.298,-0.141 0.308,-0.156C0.318,-0.171 0.328,-0.185 0.338,-0.198C0.336,-0.205 0.332,-0.209 0.325,-0.209C0.318,-0.198 0.31,-0.188 0.303,-0.178C0.296,-0.167 0.288,-0.157 0.279,-0.147C0.274,-0.14 0.268,-0.133 0.261,-0.125C0.254,-0.116 0.246,-0.108 0.238,-0.101C0.23,-0.094 0.222,-0.087 0.213,-0.082C0.203,-0.077 0.194,-0.074 0.185,-0.074ZM0.228,-0.305C0.229,-0.298 0.226,-0.287 0.219,-0.272C0.212,-0.257 0.203,-0.243 0.193,-0.228C0.182,-0.213 0.171,-0.201 0.159,-0.19C0.147,-0.179 0.136,-0.173 0.127,-0.173L0.124,-0.173C0.124,-0.174 0.124,-0.174 0.124,-0.175C0.123,-0.176 0.123,-0.176 0.123,-0.177C0.126,-0.18 0.132,-0.189 0.141,-0.202C0.151,-0.215 0.162,-0.228 0.173,-0.243C0.185,-0.258 0.196,-0.271 0.206,-0.283C0.217,-0.296 0.224,-0.303 0.228,-0.305Z" style="fill-rule:nonzero;"/>
            </g>
            <g transform="matrix(80,0,0,80,-40.561,74.6627)">
                <path d="M0.065,0.002C0.083,0.002 0.101,-0.003 0.117,-0.014C0.135,-0.025 0.151,-0.038 0.166,-0.053C0.181,-0.068 0.196,-0.084 0.209,-0.101C0.222,-0.117 0.233,-0.132 0.242,-0.145C0.249,-0.154 0.254,-0.163 0.259,-0.17C0.264,-0.177 0.268,-0.183 0.271,-0.187C0.271,-0.191 0.27,-0.194 0.268,-0.196C0.265,-0.197 0.263,-0.198 0.261,-0.198C0.26,-0.198 0.259,-0.198 0.259,-0.197C0.249,-0.183 0.237,-0.167 0.222,-0.148C0.207,-0.129 0.191,-0.11 0.173,-0.093C0.156,-0.076 0.138,-0.061 0.118,-0.049C0.1,-0.037 0.081,-0.031 0.063,-0.031C0.056,-0.032 0.051,-0.034 0.048,-0.039C0.045,-0.044 0.043,-0.05 0.043,-0.057C0.043,-0.064 0.044,-0.073 0.047,-0.082C0.05,-0.091 0.053,-0.101 0.057,-0.111C0.063,-0.103 0.073,-0.099 0.086,-0.099C0.095,-0.099 0.103,-0.102 0.113,-0.108C0.122,-0.114 0.13,-0.121 0.138,-0.13C0.146,-0.138 0.153,-0.147 0.16,-0.156C0.166,-0.165 0.171,-0.174 0.174,-0.182L0.174,-0.184C0.175,-0.187 0.176,-0.19 0.177,-0.193C0.178,-0.196 0.179,-0.199 0.18,-0.202C0.183,-0.218 0.18,-0.232 0.17,-0.244C0.16,-0.256 0.147,-0.262 0.132,-0.262C0.12,-0.262 0.108,-0.258 0.097,-0.251C0.082,-0.241 0.066,-0.227 0.051,-0.207C0.035,-0.189 0.022,-0.168 0.013,-0.146C0.003,-0.124 -0.002,-0.102 -0.002,-0.08C-0.003,-0.057 0.004,-0.037 0.019,-0.019C0.029,-0.005 0.044,0.002 0.065,0.002ZM0.147,-0.222C0.151,-0.222 0.154,-0.221 0.156,-0.218C0.157,-0.214 0.157,-0.208 0.155,-0.199C0.151,-0.19 0.146,-0.181 0.139,-0.172C0.132,-0.163 0.125,-0.154 0.117,-0.147C0.109,-0.14 0.101,-0.134 0.094,-0.129C0.087,-0.124 0.08,-0.122 0.075,-0.122C0.07,-0.122 0.067,-0.124 0.065,-0.129C0.071,-0.141 0.078,-0.153 0.086,-0.164C0.093,-0.174 0.101,-0.184 0.109,-0.193C0.116,-0.202 0.123,-0.209 0.13,-0.214C0.137,-0.219 0.142,-0.222 0.147,-0.222Z" style="fill-rule:nonzero;"/>
            </g>
            <g transform="matrix(80,0,0,80,-24.801,74.6627)">
                <path d="M-0.031,0.193C-0.026,0.193 -0.021,0.192 -0.016,0.191C-0.011,0.19 -0.006,0.189 -0.001,0.188C0.018,0.183 0.036,0.172 0.053,0.155C0.07,0.139 0.087,0.12 0.102,0.097C0.117,0.074 0.132,0.05 0.145,0.023C0.158,-0.003 0.171,-0.029 0.182,-0.054C0.193,-0.079 0.202,-0.103 0.211,-0.125C0.22,-0.147 0.227,-0.165 0.233,-0.178C0.238,-0.188 0.242,-0.198 0.247,-0.209C0.251,-0.219 0.255,-0.229 0.26,-0.238C0.264,-0.249 0.262,-0.256 0.253,-0.26C0.244,-0.264 0.236,-0.266 0.228,-0.266C0.224,-0.266 0.22,-0.266 0.217,-0.265C0.213,-0.264 0.21,-0.261 0.209,-0.257C0.205,-0.25 0.199,-0.238 0.191,-0.224C0.182,-0.209 0.173,-0.192 0.162,-0.174C0.151,-0.157 0.14,-0.139 0.129,-0.121C0.117,-0.102 0.106,-0.085 0.095,-0.07C0.084,-0.055 0.074,-0.042 0.065,-0.033C0.056,-0.024 0.048,-0.019 0.043,-0.019C0.037,-0.019 0.035,-0.025 0.037,-0.037C0.039,-0.049 0.043,-0.063 0.048,-0.078C0.053,-0.093 0.059,-0.107 0.065,-0.119C0.07,-0.133 0.074,-0.14 0.075,-0.143C0.082,-0.158 0.091,-0.175 0.101,-0.194C0.111,-0.212 0.122,-0.227 0.133,-0.239C0.136,-0.242 0.138,-0.245 0.139,-0.248C0.14,-0.25 0.139,-0.253 0.136,-0.257C0.133,-0.264 0.128,-0.27 0.122,-0.273C0.115,-0.276 0.108,-0.277 0.101,-0.277C0.096,-0.277 0.091,-0.273 0.086,-0.266C0.076,-0.253 0.066,-0.238 0.055,-0.219C0.043,-0.2 0.034,-0.181 0.025,-0.16C0.016,-0.139 0.009,-0.119 0.004,-0.098C-0.001,-0.077 -0.003,-0.059 -0.002,-0.043C-0.001,-0.031 0.002,-0.02 0.009,-0.009C0.015,0.002 0.025,0.007 0.04,0.008C0.05,0.009 0.061,0.003 0.072,-0.008C0.083,-0.019 0.094,-0.032 0.105,-0.047C0.115,-0.062 0.124,-0.077 0.133,-0.092C0.142,-0.107 0.148,-0.118 0.153,-0.125C0.142,-0.098 0.13,-0.068 0.116,-0.035C0.101,-0.002 0.085,0.029 0.068,0.058C0.051,0.087 0.032,0.11 0.013,0.129C-0.006,0.148 -0.026,0.158 -0.047,0.158C-0.064,0.158 -0.075,0.153 -0.081,0.142C-0.088,0.132 -0.092,0.12 -0.094,0.106C-0.095,0.099 -0.098,0.095 -0.103,0.094C-0.106,0.093 -0.108,0.094 -0.108,0.097C-0.108,0.101 -0.108,0.104 -0.107,0.107C-0.106,0.118 -0.103,0.129 -0.1,0.139C-0.097,0.15 -0.092,0.159 -0.086,0.167C-0.08,0.175 -0.072,0.181 -0.063,0.186C-0.054,0.191 -0.044,0.193 -0.031,0.193Z" style="fill-rule:nonzero;"/>
            </g>
            <g transform="matrix(80,0,0,80,-5.84097,74.6627)">
                <path d="M0.296,-0.407C0.287,-0.414 0.278,-0.417 0.269,-0.417C0.262,-0.417 0.255,-0.415 0.248,-0.411C0.241,-0.407 0.233,-0.4 0.225,-0.389L0.224,-0.387C0.206,-0.363 0.187,-0.335 0.166,-0.303C0.145,-0.31 0.126,-0.318 0.107,-0.327C0.087,-0.335 0.072,-0.343 0.061,-0.352C0.047,-0.363 0.044,-0.373 0.053,-0.384C0.062,-0.394 0.078,-0.404 0.101,-0.413C0.124,-0.422 0.153,-0.431 0.188,-0.439C0.222,-0.446 0.258,-0.453 0.295,-0.459C0.332,-0.464 0.369,-0.469 0.406,-0.472C0.442,-0.475 0.473,-0.477 0.5,-0.477C0.523,-0.477 0.542,-0.476 0.556,-0.473C0.57,-0.47 0.576,-0.466 0.575,-0.46C0.575,-0.457 0.576,-0.455 0.578,-0.455C0.579,-0.455 0.58,-0.456 0.581,-0.457C0.59,-0.476 0.587,-0.491 0.573,-0.502C0.559,-0.514 0.538,-0.522 0.509,-0.525C0.504,-0.526 0.497,-0.526 0.49,-0.527C0.483,-0.527 0.474,-0.527 0.465,-0.527C0.442,-0.527 0.416,-0.526 0.385,-0.524C0.354,-0.521 0.322,-0.518 0.289,-0.513C0.256,-0.508 0.223,-0.502 0.19,-0.496C0.157,-0.489 0.128,-0.48 0.101,-0.47C0.074,-0.461 0.052,-0.45 0.035,-0.438C0.017,-0.425 0.007,-0.411 0.004,-0.396C0.003,-0.386 0.005,-0.376 0.01,-0.367C0.015,-0.358 0.022,-0.349 0.031,-0.342C0.046,-0.33 0.064,-0.319 0.086,-0.31C0.108,-0.3 0.131,-0.291 0.154,-0.283C0.138,-0.257 0.122,-0.228 0.106,-0.197C0.095,-0.195 0.085,-0.193 0.076,-0.192C0.067,-0.19 0.061,-0.188 0.057,-0.187C0.046,-0.184 0.04,-0.177 0.038,-0.167C0.036,-0.157 0.038,-0.148 0.043,-0.141C0.045,-0.142 0.049,-0.143 0.056,-0.145C0.063,-0.146 0.071,-0.147 0.081,-0.148C0.071,-0.127 0.062,-0.106 0.054,-0.085C0.046,-0.064 0.04,-0.044 0.035,-0.025C0.034,-0.02 0.032,-0.014 0.031,-0.007C0.029,0 0.028,0.006 0.027,0.013C0.026,0.02 0.027,0.026 0.028,0.032C0.029,0.039 0.031,0.044 0.034,0.049C0.035,0.05 0.037,0.052 0.039,0.053C0.04,0.055 0.042,0.056 0.043,0.055C0.045,0.054 0.047,0.05 0.049,0.044C0.05,0.038 0.051,0.033 0.052,0.03C0.062,-0.002 0.074,-0.034 0.087,-0.065C0.1,-0.096 0.115,-0.126 0.13,-0.157C0.144,-0.16 0.159,-0.163 0.174,-0.166C0.189,-0.169 0.204,-0.172 0.219,-0.176C0.233,-0.18 0.246,-0.184 0.258,-0.189C0.27,-0.194 0.28,-0.198 0.288,-0.203C0.293,-0.206 0.298,-0.211 0.302,-0.216C0.305,-0.221 0.307,-0.227 0.308,-0.233C0.308,-0.238 0.306,-0.244 0.303,-0.249C0.3,-0.254 0.294,-0.259 0.286,-0.262C0.281,-0.265 0.271,-0.268 0.257,-0.273C0.242,-0.277 0.226,-0.282 0.208,-0.289C0.235,-0.33 0.264,-0.369 0.296,-0.407ZM0.259,-0.249C0.268,-0.246 0.271,-0.242 0.268,-0.238C0.265,-0.235 0.258,-0.231 0.247,-0.228C0.236,-0.225 0.223,-0.221 0.207,-0.218C0.191,-0.214 0.174,-0.21 0.157,-0.207C0.163,-0.218 0.169,-0.228 0.175,-0.238C0.182,-0.249 0.188,-0.259 0.195,-0.27C0.208,-0.266 0.219,-0.262 0.23,-0.259C0.241,-0.256 0.25,-0.252 0.259,-0.249Z" style="fill-rule:nonzero;"/>
            </g>
            <g transform="matrix(80,0,0,80,17.279,74.6627)">
                <path d="M0.176,-0.315C0.175,-0.317 0.173,-0.319 0.171,-0.321C0.168,-0.323 0.166,-0.325 0.164,-0.327C0.178,-0.35 0.189,-0.372 0.196,-0.391C0.197,-0.395 0.198,-0.401 0.198,-0.407C0.198,-0.414 0.197,-0.421 0.195,-0.428C0.193,-0.435 0.19,-0.44 0.187,-0.445C0.183,-0.45 0.178,-0.452 0.172,-0.451C0.161,-0.45 0.151,-0.446 0.141,-0.437C0.131,-0.428 0.123,-0.418 0.118,-0.405C0.113,-0.392 0.111,-0.379 0.112,-0.364C0.113,-0.349 0.12,-0.336 0.133,-0.323C0.125,-0.31 0.117,-0.297 0.109,-0.282C0.101,-0.268 0.093,-0.254 0.086,-0.241C0.078,-0.227 0.07,-0.214 0.064,-0.203C0.057,-0.191 0.05,-0.181 0.045,-0.174C0.044,-0.173 0.045,-0.17 0.046,-0.167C0.047,-0.164 0.049,-0.162 0.052,-0.162C0.055,-0.162 0.058,-0.164 0.063,-0.167C0.074,-0.182 0.086,-0.2 0.099,-0.223C0.112,-0.246 0.129,-0.273 0.15,-0.305C0.154,-0.3 0.156,-0.296 0.157,-0.294C0.161,-0.287 0.161,-0.277 0.158,-0.264C0.154,-0.251 0.148,-0.236 0.141,-0.22C0.133,-0.204 0.124,-0.187 0.114,-0.169C0.104,-0.15 0.095,-0.132 0.086,-0.114C0.077,-0.096 0.069,-0.079 0.063,-0.063C0.057,-0.046 0.054,-0.032 0.055,-0.019C0.055,-0.013 0.056,-0.007 0.057,0C0.058,0.007 0.061,0.014 0.064,0.02C0.067,0.026 0.071,0.031 0.077,0.035C0.082,0.039 0.088,0.041 0.095,0.041C0.096,0.041 0.099,0.04 0.103,0.039C0.112,0.035 0.122,0.027 0.134,0.014C0.145,0.002 0.157,-0.012 0.17,-0.028C0.183,-0.043 0.195,-0.06 0.207,-0.077C0.22,-0.094 0.231,-0.111 0.242,-0.127C0.252,-0.142 0.261,-0.156 0.268,-0.167C0.275,-0.178 0.279,-0.185 0.282,-0.188C0.285,-0.192 0.283,-0.195 0.278,-0.198C0.275,-0.199 0.274,-0.2 0.273,-0.2C0.272,-0.2 0.27,-0.199 0.267,-0.197C0.263,-0.192 0.257,-0.183 0.249,-0.171C0.24,-0.158 0.231,-0.145 0.22,-0.13C0.209,-0.115 0.198,-0.099 0.186,-0.082C0.174,-0.065 0.162,-0.051 0.151,-0.038C0.14,-0.025 0.13,-0.014 0.121,-0.006C0.112,0.003 0.105,0.007 0.1,0.006C0.104,-0.009 0.11,-0.025 0.119,-0.045C0.128,-0.064 0.137,-0.083 0.147,-0.102C0.156,-0.121 0.165,-0.138 0.173,-0.155C0.182,-0.172 0.188,-0.185 0.191,-0.195C0.195,-0.204 0.198,-0.215 0.201,-0.226C0.204,-0.236 0.205,-0.248 0.205,-0.259C0.205,-0.27 0.203,-0.28 0.199,-0.29C0.194,-0.3 0.187,-0.308 0.176,-0.315ZM0.169,-0.409C0.174,-0.409 0.174,-0.402 0.169,-0.387C0.167,-0.38 0.164,-0.374 0.161,-0.367C0.158,-0.36 0.154,-0.354 0.151,-0.349C0.146,-0.355 0.144,-0.362 0.145,-0.369C0.146,-0.376 0.147,-0.382 0.15,-0.388C0.153,-0.394 0.156,-0.399 0.16,-0.403C0.164,-0.407 0.167,-0.409 0.169,-0.409Z" style="fill-rule:nonzero;"/>
            </g>
            <g transform="matrix(80,0,0,80,33.759,74.6627)">
                <path d="M0.007,-0.056C0.008,-0.04 0.014,-0.027 0.024,-0.016C0.033,-0.005 0.046,0 0.063,0C0.079,0 0.095,-0.006 0.111,-0.018C0.127,-0.029 0.142,-0.044 0.156,-0.062C0.17,-0.079 0.182,-0.099 0.193,-0.121C0.203,-0.143 0.21,-0.164 0.213,-0.185C0.216,-0.205 0.215,-0.224 0.21,-0.241C0.204,-0.258 0.194,-0.27 0.177,-0.278C0.172,-0.281 0.166,-0.282 0.158,-0.282C0.145,-0.282 0.132,-0.278 0.119,-0.269C0.107,-0.26 0.097,-0.251 0.089,-0.24C0.082,-0.24 0.076,-0.238 0.071,-0.235C0.067,-0.232 0.063,-0.227 0.059,-0.22C0.052,-0.21 0.046,-0.198 0.039,-0.185C0.032,-0.171 0.025,-0.157 0.021,-0.141C0.016,-0.127 0.012,-0.112 0.009,-0.097C0.006,-0.082 0.006,-0.069 0.007,-0.056ZM0.073,-0.114C0.076,-0.121 0.08,-0.128 0.084,-0.137C0.087,-0.145 0.091,-0.153 0.096,-0.162C0.1,-0.171 0.104,-0.179 0.109,-0.187C0.113,-0.194 0.117,-0.201 0.121,-0.206C0.123,-0.208 0.125,-0.211 0.128,-0.214C0.131,-0.217 0.131,-0.219 0.13,-0.222C0.129,-0.224 0.128,-0.226 0.126,-0.228C0.123,-0.229 0.121,-0.231 0.118,-0.232C0.123,-0.241 0.13,-0.248 0.137,-0.253C0.143,-0.257 0.15,-0.259 0.156,-0.259C0.159,-0.259 0.162,-0.259 0.164,-0.258C0.166,-0.257 0.168,-0.255 0.171,-0.254C0.181,-0.247 0.186,-0.236 0.187,-0.222C0.188,-0.208 0.185,-0.193 0.18,-0.176C0.174,-0.159 0.166,-0.142 0.156,-0.125C0.145,-0.108 0.135,-0.092 0.124,-0.078C0.113,-0.063 0.102,-0.051 0.091,-0.042C0.08,-0.033 0.071,-0.028 0.064,-0.028C0.057,-0.028 0.053,-0.033 0.052,-0.042C0.051,-0.047 0.052,-0.054 0.054,-0.061C0.055,-0.068 0.057,-0.076 0.06,-0.083C0.063,-0.09 0.065,-0.096 0.068,-0.102C0.07,-0.108 0.072,-0.112 0.073,-0.114Z" style="fill-rule:nonzero;"/>
            </g>
        </g>
    </g>
</svg>
