<?xml version="1.0" encoding="UTF-8" standalone="no"?><!DOCTYPE svg PUBLIC "-//W3C//DTD SVG 1.1//EN" "http://www.w3.org/Graphics/SVG/1.1/DTD/svg11.dtd"><svg width="100%" height="100%" viewBox="0 0 77 63" version="1.1" xmlns="http://www.w3.org/2000/svg" xmlns:xlink="http://www.w3.org/1999/xlink" xml:space="preserve" xmlns:serif="http://www.serif.com/" style="fill-rule:evenodd;clip-rule:evenodd;stroke-linejoin:round;stroke-miterlimit:2;"><g><path d="M53.68,25.12c-0.693,-0.533 -1.413,-0.8 -2.16,-0.8c-0.533,0 -1.093,0.16 -1.68,0.48c-0.587,0.32 -1.2,0.907 -1.84,1.76l-0.08,0.16c-1.44,1.92 -2.987,4.16 -4.64,6.72c-1.653,-0.587 -3.24,-1.213 -4.76,-1.88c-1.52,-0.667 -2.733,-1.347 -3.64,-2.04c-1.12,-0.853 -1.333,-1.693 -0.64,-2.52c0.693,-0.827 1.973,-1.613 3.84,-2.36c1.867,-0.747 4.173,-1.427 6.92,-2.04c2.747,-0.613 5.613,-1.147 8.6,-1.6c2.987,-0.453 5.933,-0.813 8.84,-1.08c2.907,-0.267 5.427,-0.4 7.56,-0.4c1.867,0 3.36,0.107 4.48,0.32c1.12,0.213 1.627,0.56 1.52,1.04c0,0.267 0.08,0.4 0.24,0.4c0.053,0 0.133,-0.053 0.24,-0.16c0.693,-1.493 0.48,-2.707 -0.64,-3.64c-1.12,-0.933 -2.827,-1.533 -5.12,-1.8c-0.427,-0.053 -0.933,-0.093 -1.52,-0.12c-0.587,-0.027 -1.253,-0.04 -2,-0.04c-1.813,0 -3.947,0.093 -6.4,0.28c-2.453,0.187 -5.013,0.467 -7.68,0.84c-2.667,0.373 -5.307,0.84 -7.92,1.4c-2.613,0.56 -4.987,1.227 -7.12,2c-2.133,0.773 -3.907,1.653 -5.32,2.64c-1.413,0.987 -2.227,2.093 -2.44,3.32c-0.107,0.8 0.04,1.573 0.44,2.32c0.4,0.747 0.973,1.413 1.72,2c1.173,0.96 2.64,1.827 4.4,2.6c1.76,0.773 3.573,1.48 5.44,2.12c-1.28,2.08 -2.56,4.373 -3.84,6.88c-0.907,0.16 -1.707,0.307 -2.4,0.44c-0.693,0.133 -1.2,0.253 -1.52,0.36c-0.853,0.267 -1.36,0.8 -1.52,1.6c-0.16,0.8 -0.027,1.493 0.4,2.08c0.16,-0.107 0.507,-0.2 1.04,-0.28c0.533,-0.08 1.2,-0.173 2,-0.28c-0.8,1.707 -1.52,3.4 -2.16,5.08c-0.64,1.68 -1.147,3.267 -1.52,4.76c-0.107,0.427 -0.227,0.907 -0.36,1.44c-0.133,0.533 -0.227,1.067 -0.28,1.6c-0.053,0.533 -0.04,1.053 0.04,1.56c0.08,0.507 0.253,0.947 0.52,1.32c0.107,0.107 0.227,0.227 0.36,0.36c0.133,0.133 0.253,0.173 0.36,0.12c0.16,-0.107 0.307,-0.4 0.44,-0.88c0.133,-0.48 0.227,-0.853 0.28,-1.12c0.8,-2.56 1.733,-5.08 2.8,-7.56c1.067,-2.48 2.213,-4.947 3.44,-7.4c1.12,-0.213 2.293,-0.44 3.52,-0.68c1.227,-0.24 2.413,-0.52 3.56,-0.84c1.147,-0.32 2.2,-0.667 3.16,-1.04c0.96,-0.373 1.76,-0.747 2.4,-1.12c0.427,-0.267 0.787,-0.613 1.08,-1.04c0.293,-0.427 0.453,-0.867 0.48,-1.32c0.027,-0.453 -0.093,-0.893 -0.36,-1.32c-0.267,-0.427 -0.72,-0.773 -1.36,-1.04c-0.427,-0.213 -1.213,-0.493 -2.36,-0.84c-1.147,-0.347 -2.44,-0.787 -3.88,-1.32c2.133,-3.253 4.48,-6.4 7.04,-9.44Zm-2.96,12.64c0.693,0.267 0.92,0.547 0.68,0.84c-0.24,0.293 -0.787,0.573 -1.64,0.84c-0.853,0.267 -1.92,0.547 -3.2,0.84c-1.28,0.293 -2.613,0.573 -4,0.84c0.48,-0.853 0.973,-1.693 1.48,-2.52c0.507,-0.827 1.027,-1.667 1.56,-2.52c1.013,0.32 1.947,0.613 2.8,0.88c0.853,0.267 1.627,0.533 2.32,0.8Z" style="fill-rule:nonzero;"/><path d="M35.28,21.04c1.173,-2.187 2.067,-4.52 2.68,-7c0.613,-2.48 0.853,-4.76 0.72,-6.84c-0.133,-2.08 -0.733,-3.8 -1.8,-5.16c-1.067,-1.36 -2.693,-2.04 -4.88,-2.04c-1.013,0 -2.293,0.24 -3.84,0.72c-1.44,0.427 -3.133,1.147 -5.08,2.16c-1.947,1.013 -3.973,2.267 -6.08,3.76c-2.107,1.493 -4.173,3.173 -6.2,5.04c-2.027,1.867 -3.853,3.853 -5.48,5.96c-1.627,2.107 -2.92,4.28 -3.88,6.52c-0.96,2.24 -1.44,4.453 -1.44,6.64c0,1.92 0.507,3.613 1.52,5.08c1.013,1.467 2.253,2.72 3.72,3.76c1.467,1.04 3.04,1.867 4.72,2.48c1.68,0.613 3.213,1.053 4.6,1.32c1.227,0.267 2.453,0.48 3.68,0.64c1.227,0.16 2.453,0.4 3.68,0.72c0.32,0.053 0.68,0.133 1.08,0.24c0.4,0.107 0.72,0.267 0.96,0.48c0.24,0.213 0.373,0.493 0.4,0.84c0.027,0.347 -0.173,0.813 -0.6,1.4c-0.48,0.8 -1.253,1.653 -2.32,2.56c-1.067,0.907 -2.213,1.76 -3.44,2.56c-1.227,0.8 -2.453,1.467 -3.68,2c-1.227,0.533 -2.24,0.8 -3.04,0.8c-0.587,0 -1.04,-0.107 -1.36,-0.32c-0.32,-0.213 -0.64,-0.56 -0.96,-1.04c-0.107,-0.267 -0.293,-0.4 -0.56,-0.4c-0.427,0 -0.533,0.293 -0.32,0.88c0.267,1.28 0.827,2.28 1.68,3c0.853,0.72 1.947,1.08 3.28,1.08c0.8,0 1.653,-0.147 2.56,-0.44c0.907,-0.293 1.773,-0.653 2.6,-1.08c0.827,-0.427 1.627,-0.907 2.4,-1.44c0.773,-0.533 1.453,-1.04 2.04,-1.52c0.587,-0.533 1.253,-1.253 2,-2.16c0.747,-0.907 1.347,-1.867 1.8,-2.88c0.453,-1.013 0.68,-2.04 0.68,-3.08c0,-1.04 -0.427,-2.013 -1.28,-2.92c-0.747,-0.853 -1.787,-1.547 -3.12,-2.08c-1.333,-0.533 -2.76,-0.987 -4.28,-1.36c-1.52,-0.373 -3.08,-0.733 -4.68,-1.08c-1.6,-0.347 -3.08,-0.773 -4.44,-1.28c-1.36,-0.507 -2.52,-1.12 -3.48,-1.84c-0.96,-0.72 -1.573,-1.667 -1.84,-2.84c-0.32,-1.387 -0.107,-2.947 0.64,-4.68c0.747,-1.733 1.787,-3.493 3.12,-5.28c1.333,-1.787 2.853,-3.533 4.56,-5.24c1.707,-1.707 3.387,-3.28 5.04,-4.72c1.653,-1.44 3.173,-2.667 4.56,-3.68c1.387,-1.013 2.4,-1.68 3.04,-2c0.427,-0.213 0.947,-0.48 1.56,-0.8c0.613,-0.32 1.28,-0.64 2,-0.96c0.72,-0.32 1.453,-0.587 2.2,-0.8c0.747,-0.213 1.44,-0.32 2.08,-0.32c0.747,0 1.36,0.16 1.84,0.48c0.587,0.373 0.907,1.053 0.96,2.04c0.053,0.987 -0.067,2.16 -0.36,3.52c-0.293,1.36 -0.76,2.827 -1.4,4.4c-0.64,1.573 -1.36,3.16 -2.16,4.76c-0.373,0.64 -0.947,1.627 -1.72,2.96c-0.773,1.333 -1.627,2.667 -2.56,4c-0.933,1.333 -1.893,2.493 -2.88,3.48c-0.987,0.987 -1.853,1.48 -2.6,1.48l-0.4,0c-0.213,0 -0.4,0.08 -0.56,0.24c-0.267,0.213 -0.333,0.4 -0.2,0.56c0.133,0.16 0.28,0.293 0.44,0.4c0.48,0.213 1.04,0.32 1.68,0.32c1.28,0 2.547,-0.44 3.8,-1.32c1.253,-0.88 2.427,-1.947 3.52,-3.2c1.093,-1.253 2.08,-2.56 2.96,-3.92c0.88,-1.36 1.587,-2.547 2.12,-3.56Z" style="fill-rule:nonzero;"/></g></svg>